<svg class="jsx-2263963463 artboard"><svg viewBox="0 0 50 50" xmlns="http://www.w3.org/2000/svg" xmlns:xlink="http://www.w3.org/1999/xlink" version="1.1" class="jsx-2263963463 artboard-inner" style="width: 55px; height: 55px; max-height: 100%;"><g transform="translate(24.75 24.75) scale(1.4285714285714286)" id="lockup4-icon"><g fill="#FFFFFF"><g transform="translate(-17.325 -17.325) scale(0.3431372549019608)" id="container"><g fill="#FFFFFF"><polygon vector-effect="non-scaling-stroke" points="1 101 101 101 101 1 1 1"></polygon> </g></g><g transform="translate(-8.494633099364636 -10.001116552604351) scale(0.19999833680582338)" id="icon"><g fill="#232323"><path d="M60.71 57.334s-2.023 5.293-3.118 11.147C69.608 63.961 81.636 53.749 85.2 51.39c-2.31 2.533-9.501 11.375-22.904 21.386a27.014 27.014 0 0 0 2.358-.231c31.825-1.129 35.32-31.684 35.32-31.684-22.987-4.307-32.421 2.664-39.264 16.473zM18.271 43.532c4.536 7.4 13.036 24.65 31.076 32.542.791-5.734.287-11.017.287-11.017C46.25 20.529 2.715 16.829 2.715 16.829c-9.68 34.42 7.348 56.052 34.162 65.31 0 0 2.949.775 7.206 1.044-18.374-15.578-24.776-34-25.812-39.651z"></path></g></g></g></g></svg></svg>
