<svg class="jsx-2263963463 artboard"><svg viewBox="-360.2837883008356 -269.0607034368688 720.5675766016712 369.0607034368688" xmlns="http://www.w3.org/2000/svg" xmlns:xlink="http://www.w3.org/1999/xlink" version="1.1" class="jsx-2263963463 artboard-inner" style="width: 480px; height: 245.847px; max-height: 100%;"><g transform="translate(-369.68490250696374 98.11977715877438) scale(1.9808108944599196)" fill="#232323"><g id="line1"><path d="M57.656-3.832L57.656-3.832L57.656-9.070C56.414-8.250 55.037-7.471 53.525-6.732C52.014-5.994 50.361-5.344 48.568-4.781C46.775-4.219 44.854-3.773 42.803-3.445C40.752-3.117 38.578-2.953 36.281-2.953C31.641-2.953 27.621-3.451 24.223-4.447C20.824-5.443 18.018-6.861 15.803-8.701C13.588-10.541 11.947-12.762 10.881-15.363C9.814-17.965 9.281-20.883 9.281-24.117C9.281-27.352 9.814-30.275 10.881-32.889C11.947-35.502 13.588-37.729 15.803-39.568C18.018-41.408 20.824-42.832 24.223-43.840C27.621-44.848 31.641-45.352 36.281-45.352C38.578-45.352 40.734-45.188 42.750-44.859C44.766-44.531 46.658-44.086 48.428-43.523C50.197-42.961 51.844-42.305 53.367-41.555C54.891-40.805 56.320-40.008 57.656-39.164L57.656-44.438C55.969-45.141 54.299-45.779 52.646-46.354C50.994-46.928 49.277-47.426 47.496-47.848C45.715-48.270 43.840-48.598 41.871-48.832C39.902-49.066 37.758-49.184 35.438-49.184C32.555-49.184 29.801-48.949 27.176-48.480C24.551-48.012 22.102-47.309 19.828-46.371C17.555-45.434 15.492-44.268 13.641-42.873C11.789-41.479 10.201-39.855 8.877-38.004C7.553-36.152 6.533-34.066 5.818-31.746C5.104-29.426 4.746-26.883 4.746-24.117C4.746-21.352 5.104-18.809 5.818-16.488C6.533-14.168 7.553-12.082 8.877-10.230C10.201-8.379 11.789-6.756 13.641-5.361C15.492-3.967 17.555-2.801 19.828-1.863C22.102-0.926 24.557-0.223 27.193 0.246C29.830 0.715 32.578 0.949 35.438 0.949C37.758 0.949 39.902 0.832 41.871 0.598C43.840 0.363 45.715 0.035 47.496-0.387C49.277-0.809 50.994-1.312 52.646-1.898C54.299-2.484 55.969-3.129 57.656-3.832Z"></path><path d="M116.809 0L121.203 0L121.203-48.305L116.809-48.305L116.809-27.492L73.531-27.492L73.531-48.305L69.137-48.305L69.137 0L73.531 0L73.531-23.414L116.809-23.414Z"></path><path d="M184.610-2.531L184.610-7.629C183.672-7.043 182.465-6.475 180.988-5.924C179.512-5.373 177.883-4.881 176.102-4.447C174.321-4.014 172.457-3.668 170.512-3.410C168.567-3.152 166.645-3.023 164.746-3.023C160.293-3.023 156.397-3.475 153.057-4.377C149.717-5.279 146.904-6.574 144.619-8.262C142.334-9.949 140.571-12.000 139.328-14.414C138.086-16.828 137.336-19.535 137.078-22.535L188.582-22.535L188.582-23.625C188.582-27.516 187.973-31.014 186.754-34.119C185.535-37.225 183.754-39.867 181.410-42.047C179.067-44.227 176.184-45.902 172.762-47.074C169.340-48.246 165.438-48.832 161.055-48.832C156.836-48.832 152.981-48.223 149.488-47.004C145.996-45.785 142.996-44.074 140.488-41.871C137.981-39.668 136.029-37.031 134.635-33.961C133.240-30.891 132.543-27.516 132.543-23.836C132.543-20.039 133.270-16.617 134.723-13.570C136.176-10.523 138.244-7.928 140.928-5.783C143.612-3.639 146.863-1.992 150.684-0.844C154.504 0.305 158.781 0.879 163.516 0.879C165.555 0.879 167.424 0.814 169.123 0.686C170.822 0.557 172.492 0.357 174.133 0.088C175.774-0.182 177.438-0.533 179.125-0.967C180.813-1.400 182.641-1.922 184.610-2.531ZM184.258-26.367L137.078-26.367C137.383-28.852 138.098-31.213 139.223-33.451C140.348-35.689 141.895-37.658 143.863-39.357C145.832-41.057 148.235-42.410 151.071-43.418C153.906-44.426 157.211-44.930 160.985-44.930C164.992-44.930 168.432-44.426 171.303-43.418C174.174-42.410 176.541-41.051 178.404-39.340C180.268-37.629 181.668-35.654 182.606-33.416C183.543-31.178 184.094-28.828 184.258-26.367Z"></path><path d="M235.676-44.578L235.676-44.578L235.676-48.902C235.160-48.996 234.657-49.078 234.164-49.148C233.672-49.219 233.151-49.283 232.600-49.342C232.049-49.400 231.446-49.447 230.789-49.482C230.133-49.518 229.395-49.535 228.575-49.535C226.184-49.535 223.869-49.260 221.631-48.709C219.393-48.158 217.254-47.396 215.215-46.424C213.176-45.451 211.237-44.285 209.397-42.926C207.557-41.566 205.852-40.078 204.282-38.461L204.282-48.305L199.887-48.305L199.887 0L204.282 0L204.282-33.539C205.641-35.180 207.164-36.732 208.852-38.197C210.539-39.662 212.373-40.945 214.354-42.047C216.334-43.148 218.479-44.021 220.787-44.666C223.096-45.311 225.563-45.633 228.188-45.633C230.086-45.633 231.639-45.510 232.846-45.264C234.053-45.018 234.996-44.789 235.676-44.578Z"></path><path d="M242.235 0L246.629 0L246.629-48.305L242.235-48.305Z"></path><path d="M300.368-41.168L300.368-46.230C298.844-46.629 297.338-47.004 295.850-47.355C294.362-47.707 292.838-48.018 291.280-48.287C289.721-48.556 288.104-48.773 286.428-48.938C284.752-49.102 282.977-49.184 281.102-49.184C279.391-49.184 277.657-49.102 275.899-48.938C274.141-48.773 272.448-48.510 270.819-48.146C269.190-47.783 267.661-47.291 266.231-46.670C264.801-46.049 263.553-45.281 262.487-44.367C261.420-43.453 260.583-42.369 259.973-41.115C259.364-39.861 259.059-38.426 259.059-36.809C259.059-35.168 259.440-33.727 260.202-32.484C260.963-31.242 261.995-30.146 263.295-29.197C264.596-28.248 266.120-27.422 267.866-26.719C269.612-26.016 271.458-25.383 273.403-24.820C275.348-24.258 277.358-23.736 279.432-23.256C281.506-22.775 283.516-22.283 285.461-21.779C287.407-21.275 289.252-20.730 290.999-20.145C292.745-19.559 294.268-18.885 295.569-18.123C296.870-17.361 297.901-16.477 298.663-15.469C299.424-14.461 299.805-13.289 299.805-11.953C299.805-10.289 299.331-8.883 298.381-7.734C297.432-6.586 296.102-5.654 294.391-4.939C292.680-4.225 290.653-3.703 288.309-3.375C285.965-3.047 283.411-2.883 280.645-2.883C276.731-2.883 272.999-3.234 269.448-3.938C265.897-4.641 262.528-5.941 259.340-7.840L259.340-2.461C262.434-1.406 265.686-0.574 269.096 0.035C272.506 0.645 276.309 0.949 280.504 0.949C282.333 0.949 284.190 0.873 286.077 0.721C287.963 0.568 289.792 0.305 291.561-0.070C293.331-0.445 294.995-0.955 296.553-1.600C298.112-2.244 299.471-3.053 300.631-4.025C301.792-4.998 302.711-6.158 303.391-7.506C304.071-8.854 304.411-10.430 304.411-12.234C304.411-13.898 304.030-15.363 303.268-16.629C302.506-17.895 301.475-19.020 300.174-20.004C298.874-20.988 297.350-21.850 295.604-22.588C293.858-23.326 292.006-23.994 290.049-24.592C288.092-25.189 286.077-25.746 284.002-26.262C281.928-26.777 279.913-27.287 277.956-27.791C275.999-28.295 274.147-28.834 272.401-29.408C270.655-29.982 269.131-30.621 267.831-31.324C266.530-32.027 265.499-32.836 264.737-33.750C263.975-34.664 263.594-35.730 263.594-36.949C263.594-38.402 263.999-39.656 264.807-40.711C265.616-41.766 266.788-42.639 268.323-43.330C269.858-44.021 271.733-44.531 273.948-44.859C276.163-45.188 278.688-45.352 281.524-45.352C283.868-45.352 286.000-45.217 287.922-44.947C289.844-44.678 291.573-44.344 293.108-43.945C294.643-43.547 296.008-43.096 297.204-42.592C298.399-42.088 299.454-41.613 300.368-41.168Z"></path><path d="M364.126 0L368.520 0L368.520-48.305L364.126-48.305L364.126-27.492L320.848-27.492L320.848-48.305L316.454-48.305L316.454 0L320.848 0L320.848-23.414L364.126-23.414Z"></path></g></g><g transform="translate(-180.04521378580068 -329.6923596589589) scale(3.6028079219134246)" id="logomark"><g fill="#232323"><path d="M60.71 57.334s-2.023 5.293-3.118 11.147C69.608 63.961 81.636 53.749 85.2 51.39c-2.31 2.533-9.501 11.375-22.904 21.386a27.014 27.014 0 0 0 2.358-.231c31.825-1.129 35.32-31.684 35.32-31.684-22.987-4.307-32.421 2.664-39.264 16.473zM18.271 43.532c4.536 7.4 13.036 24.65 31.076 32.542.791-5.734.287-11.017.287-11.017C46.25 20.529 2.715 16.829 2.715 16.829c-9.68 34.42 7.348 56.052 34.162 65.31 0 0 2.949.775 7.206 1.044-18.374-15.578-24.776-34-25.812-39.651z"></path></g></g></svg></svg>
